<svg xmlns="http://www.w3.org/2000/svg" viewBox="0 0 200 120.72"><defs><style>.cls-1{fill:#d67f00;}.cls-2{fill:#ffcf69;}.cls-3{fill:#f29813;}.cls-4{fill:#000e44;}.cls-5{fill:#272372;}.cls-6{fill:#413c8c;}.cls-7{fill:#edf4ff;}.cls-8{fill:#7e9bc7;}.cls-9{fill:#c0ddfd;}.cls-10{fill:#1a6fce;}.cls-11{fill:#b4d7fd;}.cls-12{fill:#3a3494;}.cls-13{fill:#436ebf;}.cls-14{fill:#5986de;}.cls-15{fill:#6694ee;}.cls-16{fill:#ffa014;}.cls-17{fill:#fff;}.cls-18{fill:#3d3896;}</style></defs><title>Recurso 3</title><g id="Capa_2" data-name="Capa 2"><g id="Ñëîé_1" data-name="Ñëîé 1"><path class="cls-1" d="M81.77,115.59l-.17,0c-.14,0-.25-.13-.23-.24L85,86.54c.45-3.53,1.67-6.85,2.62-6.67l1.15.21c1,.17.91,3.71.07,7.16l-6.81,28.21C82.05,115.56,81.91,115.62,81.77,115.59Z"/><path class="cls-1" d="M101.71,115.59l.17,0c.14,0,.25-.13.23-.24L98.44,86.54C98,83,96.77,79.69,95.82,79.87l-1.15.21c-1,.17-.91,3.71-.07,7.16l6.81,28.21C101.43,115.56,101.57,115.62,101.71,115.59Z"/><path class="cls-2" d="M107.39,84.86c-7.52,0-12.6-6.16-12.6-13.68V57.37a2.59,2.59,0,0,0-2.59-2.59H79.92a4.58,4.58,0,0,0-4.56,4.56V74.91A13.12,13.12,0,0,0,88.44,88h16c2,0,2.65-1.32,3.25-3.13Z"/><path class="cls-3" d="M110.16,84.86c-7.52,0-12.61-6.16-12.61-13.68V57.37A2.58,2.58,0,0,0,95,54.78H82.69a4.58,4.58,0,0,0-4.56,4.56V74.91A13.12,13.12,0,0,0,91.21,88h16c2,0,2.65-1.32,3.25-3.13Z"/><path class="cls-4" d="M88.93,75.3c-4.76,4-2.35,9.47,1,10.45,2.31.67,11.75,1.62,16.5,1.36s7.68-4,6.79-5.07-9.19-7-13.16-7S88.93,75.3,88.93,75.3Z"/><path class="cls-5" d="M92.27,56.92c2,0,5.27,1.2,7.78,4.08s5,10.91,5,10.91S99.84,77.13,95.35,78s-7.1-1.36-8.83-2.72-2.24-8.09-1.88-12S88.93,57,92.27,56.92Z"/><path class="cls-6" d="M86.68,59.06c2.57-1.79,2.93,4.86,2.51,7.84s-1,7.1-1.26,7.93,3.61,3.92,3.61,3.92-3.81.37-5.28-.1-4.17-.6-4.7-2-.78-7,.53-10.69A16.64,16.64,0,0,1,86.68,59.06Z"/><rect class="cls-7" x="90.81" y="51.48" width="2.99" height="8.22" rx="1.5"/><path class="cls-8" d="M92.57,51.48H92a1.22,1.22,0,0,0-1.22,1.22v2a7.05,7.05,0,0,0,3,3.2V52.7A1.23,1.23,0,0,0,92.57,51.48Z"/><ellipse class="cls-7" cx="94.36" cy="52.03" rx="3.48" ry="4.11"/><path class="cls-1" d="M90.73,54.63c-2.61-4.55-1.8-7.52-.18-8.46s4.3-1.75,6.18-.19,3.71.94,3.92.21,1.51,3.5-1.07,4.6-5.43-2.59-6.32-.34-.89,2.53-1.33,2.24-.63-1.09-.86-.7S90.91,55.1,90.73,54.63Z"/><path class="cls-7" d="M91.27,51.67c.29.63.23,1.28-.15,1.46s-.93-.19-1.22-.82S89.66,51,90,50.85,91,51,91.27,51.67Z"/><path class="cls-5" d="M109.66,81.83c3.23-1.77,5.11-2.24,6.16,1.72s-8,27.54-8.95,29-2.19-.21-2.19-.21S106.63,89.4,107.05,86,109.66,81.83,109.66,81.83Z"/><path class="cls-5" d="M102.56,82c-7.88-3.56-8.39,7.43-5.68,14.64s5.76,16.81,6.7,16.76.94.1,1.26-1.2S106.94,84,102.56,82Z"/><path class="cls-5" d="M105.83,112.24c3.86,1.36,7.88,5.43,6,5.22s-5.43-2-5.9-2.24,1.93,5.63-.94,3.39-3.08-4.44-2.45-5.33.94-.94.94-.94Z"/><path class="cls-9" d="M99.47,67.59a.13.13,0,0,1-.11-.12,17.1,17.1,0,0,0-1.3-6.58.13.13,0,0,1,.06-.16.11.11,0,0,1,.15.06,17.45,17.45,0,0,1,1.32,6.68A.12.12,0,0,1,99.47,67.59Z"/><path class="cls-9" d="M91,78.87a.13.13,0,0,1-.09,0c-.12-.14-2.78-3.25-3-3.57-.09-.14,0-.56.26-2.31a63.46,63.46,0,0,0,1-8.72.11.11,0,0,1,.11-.11.12.12,0,0,1,.12.12,62.26,62.26,0,0,1-1,8.75,14.59,14.59,0,0,0-.28,2.15c.16.24,2,2.42,3,3.54a.11.11,0,0,1,0,.16A.11.11,0,0,1,91,78.87Z"/><path class="cls-1" d="M3.16,116,3,116c-.14,0-.24-.13-.23-.24L6.43,87c.45-3.53,1.67-6.85,2.62-6.68l1.15.22c1,.17.91,3.7.08,7.16L3.47,115.87A.25.25,0,0,1,3.16,116Z"/><path class="cls-1" d="M26,116l.17,0c.14,0,.25-.13.23-.24L22.69,87c-.45-3.53-1.67-6.85-2.62-6.68l-1.15.22c-1,.17-.91,3.7-.07,7.16l6.81,28.21C25.68,116,25.82,116,26,116Z"/><path class="cls-2" d="M32.41,85.28c-7.53,0-12.61-6.16-12.61-13.68V57.79a2.59,2.59,0,0,0-2.58-2.59H4.94A4.57,4.57,0,0,0,.38,59.76V75.33A13.12,13.12,0,0,0,13.46,88.41h16c2,0,2.66-1.32,3.26-3.13Z"/><path class="cls-3" d="M33.21,85.28c-7.53,0-10.64-6.16-10.64-13.68V57.79A2.59,2.59,0,0,0,20,55.2H7.71a4.57,4.57,0,0,0-4.56,4.56V75.33A13.12,13.12,0,0,0,16.23,88.41h16c2,0,.25-1.32.85-3.13Z"/><path class="cls-7" d="M21.3,61.36C26,65.9,30.06,74.49,32.2,75.27a13.22,13.22,0,0,1,4.21,3s-4.68.35-6.82-1.26a17.55,17.55,0,0,1-4.32-3.41c-1.88-2.14-4-5-4-5Z"/><path class="cls-10" d="M17.21,59.34c-2.5,0-6.11,1.94-6.51,3.54a26.85,26.85,0,0,0,1.64,14.7C14.71,83.29,22.82,82,22.82,82a20,20,0,0,1,1.64-12.67c1.4-2.69-1.31-7-4.72-9.26A10.15,10.15,0,0,0,17.21,59.34Z"/><rect class="cls-7" x="16.03" y="53.77" width="2.99" height="8.22" rx="1.5"/><path class="cls-8" d="M17.8,53.77h-.54A1.23,1.23,0,0,0,16,55v2a7,7,0,0,0,3,3.19V55A1.23,1.23,0,0,0,17.8,53.77Z"/><ellipse class="cls-7" cx="19.58" cy="54.33" rx="3.48" ry="4.11"/><path class="cls-4" d="M15.56,113c-.21,1.93,3.13,5.37,2.46,5.43a5.7,5.7,0,0,1-3.71-1.52c-.84-1-1.83-1.41-2-1.93s2-1.93,2-1.93Z"/><path class="cls-4" d="M20.26,79c10.34.21,15.2,2.12,15.25,4.79s-3.14,17.49-4.65,22.4a65.66,65.66,0,0,1-2.51,7.1,6.37,6.37,0,0,1-1.67-.11c-.21-.15-.47-16,0-19.73s1-9,1-9l-13.37-1.3Z"/><path class="cls-5" d="M12.43,77.5c-3.5,3.6-2.94,8.32,1.86,9s9.89.8,10,1a50,50,0,0,0-7.71,15.26c-2.21,6.93-2.94,10.8-2.47,10.8a4.77,4.77,0,0,0,1.46,0c2.25-2.62,16.22-23,16.3-28.36.05-3.71-10.43-5.67-10.43-5.67Z"/><path class="cls-4" d="M28,112.8c1.67,1.77,5.41,3.68,4.65,3.86-1.36.31-3.19.37-4.23-.42s-1.94-.15-2.35-.83.73-2.67.73-2.67Z"/><path class="cls-7" d="M10.86,62.2c1.35-2.17,3.45-.05,4.39,3.39C16,68.34,20,75.36,21.3,75.36s8.86.78,10.07.47,2.52-2.82,3.09-2.61a4.06,4.06,0,0,1,1,.57l-.58,2.09a18.12,18.12,0,0,1-5,1.79c-2,.21-6.77,1.6-9.59,1.55s-6.16-3.6-8.61-8S10.18,63.29,10.86,62.2Z"/><path class="cls-5" d="M21.93,48.2c3.34.21,2.87,5.54.26,6s-4.44.62-4.8,2.66-2.61,3.71.1,6.27,1.15,3.34.58,4.75.89,3,.89,3-3.19-1.73-2.72-3.66,1.16-2.8-1.2-3.76c-1.67-.68-1.1-2.4-2.87-2.3-.94.06-2.56-1.2-1.83-6.94s4.75-7.21,7-7.52A5.11,5.11,0,0,1,21.93,48.2Z"/><path class="cls-1" d="M43,117.44l-.17,0c-.14,0-.24-.13-.23-.24l3.67-28.79c.45-3.53,1.67-6.84,2.62-6.67l1.15.21c.95.18.91,3.71.08,7.17L43.26,117.3A.26.26,0,0,1,43,117.44Z"/><path class="cls-1" d="M65.75,117.44l.17,0c.14,0,.25-.13.23-.24L62.48,88.38c-.45-3.53-1.67-6.84-2.62-6.67l-1.15.21c-1,.18-.91,3.71-.07,7.17l6.81,28.21A.25.25,0,0,0,65.75,117.44Z"/><path class="cls-2" d="M71,86.08c-7.53,0-12.61-6.16-12.61-13.68V58.59A2.59,2.59,0,0,0,55.82,56H43.54A4.58,4.58,0,0,0,39,60.56V76.13A13.12,13.12,0,0,0,52.06,89.21h16c2,0,2.65-1.32,3.26-3.13Z"/><path class="cls-3" d="M72,86.08c-7.53,0-10.85-6.16-10.85-13.68V58.59A2.59,2.59,0,0,0,58.59,56H46.31a4.57,4.57,0,0,0-4.56,4.56V76.13A13.12,13.12,0,0,0,54.83,89.21h16c2,0,.94-1.32,1.54-3.13Z"/><path class="cls-10" d="M52.25,55c-3-2.89-4.56-7-1.91-8.59s3.41-.39,5.6-1.15,4.08-.18,4.15,1.35a7.24,7.24,0,0,0,.41,2.79c.77,1.25-1.29,2.71-1.7,2.92S52.25,55,52.25,55Z"/><path class="cls-4" d="M77.22,113.14c.85,1.43,6,4.18,5,4.47s-3.42.85-5-.29-1.76-.95-2.14-1.71,1.1-2.09,1.1-2.09Z"/><path class="cls-5" d="M51.71,77c-3.58,4.25-2.21,9.09,1.66,9.82s14.3,4.07,14.72,4.7C71.64,106,75,114,75.61,114.21a4.6,4.6,0,0,0,2.09-.42s-.21-14.57-2.82-25.54c-.75-3.16.3-5.37-5.22-7.41a59.08,59.08,0,0,1-9.56-4.23Z"/><path class="cls-11" d="M59,58.66c4.73,3.9,14.76,10.52,14.76,10.52s-1.88,2-2.65,1.88-10.86-3.76-12-5.5S59,58.66,59,58.66Z"/><path class="cls-5" d="M71.2,71.18h-.1c-.74-.13-10.88-3.73-12-5.55s-.2-6.77-.16-7a.11.11,0,0,1,.08-.08.09.09,0,0,1,.11,0C63.75,62.43,73.73,69,73.83,69.08a.1.1,0,0,1,0,.08.17.17,0,0,1,0,.1C73.66,69.46,72,71.18,71.2,71.18ZM59.09,58.88c-.17.95-.8,5.12.15,6.61,1.1,1.71,11.1,5.31,11.9,5.45.55.1,1.87-1.14,2.45-1.74C72.47,68.46,63.55,62.52,59.09,58.88Z"/><path class="cls-11" d="M52.81,56.64c-3,.49-6.75,2.16-7.1,3.14-.22.6,1.74,10.65,3.48,14s4,4.88,6.68,4.88,4.67-1.47,4.74-3.76-.36-5.21.42-7.31c1-2.86,1-7.94-3.35-9.61A16.29,16.29,0,0,0,52.81,56.64Z"/><path class="cls-5" d="M55.87,78.76c-2.83,0-5-1.61-6.78-4.93-1.65-3.17-3.75-13.37-3.49-14.09.37-1,4.13-2.71,7.19-3.21h0a16.23,16.23,0,0,1,4.91,1.33c4.47,1.7,4.46,6.89,3.41,9.76a14.59,14.59,0,0,0-.43,5.16c0,.74,0,1.44,0,2.11C60.65,77.21,58.7,78.76,55.87,78.76Zm-3-22c-3.12.51-6.7,2.21-7,3.06-.21.57,1.72,10.54,3.47,13.9s3.84,4.81,6.58,4.81,4.56-1.47,4.62-3.65c0-.66,0-1.36,0-2.1a14.64,14.64,0,0,1,.45-5.24c1-2.79,1-7.82-3.28-9.46A16.79,16.79,0,0,0,52.82,56.76Z"/><path class="cls-7" d="M54.44,59.48h-.55c-.67,0-1.62-1.52-1.62-2.19v-4.8a1.22,1.22,0,0,1,1.22-1.22H54a1.22,1.22,0,0,1,1.22,1.22v5.77C55.26,58.93,55.11,59.48,54.44,59.48Z"/><path class="cls-8" d="M54,51.27h-.55a1.22,1.22,0,0,0-1.22,1.22v2a7,7,0,0,0,3,3.2V52.49A1.22,1.22,0,0,0,54,51.27Z"/><ellipse class="cls-7" cx="55.82" cy="51.82" rx="3.48" ry="4.11"/><path class="cls-7" d="M55.39,76.24c2.4-.48,3-.41,3.41-.14s2.57,2.37,1.84,2.48a12.59,12.59,0,0,1-4.94-1.12C54.52,76.77,55.39,76.24,55.39,76.24Z"/><path class="cls-11" d="M46.61,59c-2,.77-7,10.65-6,13.16s13.5,5.61,15.1,5.47c.63-.28.28-1.54.28-1.54l-8.68-5.4A30.06,30.06,0,0,0,49,65.42C49.82,62.28,46.61,59,46.61,59Z"/><path class="cls-5" d="M49.09,65h0a.13.13,0,0,1-.11-.13,4.48,4.48,0,0,0,0-1.31.12.12,0,0,1,.23,0,5,5,0,0,1,0,1.38A.1.1,0,0,1,49.09,65Z"/><path class="cls-5" d="M55.63,77.79c-2,0-14.13-3.05-15.11-5.58S44.24,60,46.44,58.87a.11.11,0,0,1,.15.06.11.11,0,0,1-.05.15c-2,1-6.73,10.69-5.81,13s13.36,5.53,15,5.43c.4-.2.3-1,.21-1.35l-8.64-5.4a.1.1,0,0,1-.05-.13l.05-.13a36.55,36.55,0,0,0,1.6-5.16v0a.12.12,0,0,1,.14-.09.11.11,0,0,1,.08.14v0a35.85,35.85,0,0,1-1.61,5.19v0L56.07,76s0,0,0,.07.37,1.35-.34,1.67h-.15Z"/><path class="cls-4" d="M68,110.45c0,1.93,2.56,7.83.94,7.15s-2.67-.94-2.93-3.08S64.49,113,64.75,112s1.62-1.82,1.62-1.82Z"/><path class="cls-12" d="M64,82.72c1.32-4.84,6-3.55,7.83-2.61s.52,10.86-1.36,21a79.44,79.44,0,0,1-2.4,9.82s-1.88.62-2.3-.53C65.48,107.26,63.39,85,64,82.72Z"/><path class="cls-5" d="M47.35,70.86a.11.11,0,0,1-.07,0s-2.11-1.71-3.54-1a.13.13,0,0,1-.16-.06.12.12,0,0,1,.06-.15c1.56-.79,3.7.94,3.79,1a.11.11,0,0,1,0,.16A.11.11,0,0,1,47.35,70.86Z"/><path class="cls-10" d="M59.74,49c-1,1.88-1.57,1.88-3.83,1.28s-2.26.07-2.37,1.43-.35,2-.7,1.36-.69,1.25-.69,1.25a46.56,46.56,0,0,1-1.85-4.87c.18-.11,3.66-2.79,3.66-2.79l4.87.11Z"/><ellipse class="cls-7" cx="52.1" cy="52.24" rx="0.68" ry="1.1" transform="translate(-14.85 21.24) rotate(-20.24)"/><path class="cls-13" d="M.38,120.58l1,.13a.44.44,0,0,0,.49-.37L8.44,84.52c.28-1.68,0-3.19-.64-3.27l-2.74-.36c-.65-.09-1.31,1.3-1.47,3L0,120.1A.44.44,0,0,0,.38,120.58Z"/><path class="cls-14" d="M118.06,83.61H3.78a1.87,1.87,0,1,1,0-3.73H118.06a1.87,1.87,0,0,1,0,3.73Z"/><path class="cls-14" d="M119.65,120.58l-1,.13a.44.44,0,0,1-.49-.37l-6.59-35.82c-.28-1.68,0-3.19.64-3.27l2.74-.36c.65-.09,1.31,1.3,1.47,3L120,120.1A.44.44,0,0,1,119.65,120.58Z"/><path class="cls-14" d="M17.56,120.58l1,.13a.44.44,0,0,0,.49-.37l6.58-35.82c.29-1.68,0-3.19-.64-3.27l-2.74-.36c-.64-.09-1.3,1.3-1.46,3L17.18,120.1A.44.44,0,0,0,17.56,120.58Z"/><path class="cls-13" d="M26.53,83.61H3.78a1.87,1.87,0,1,1,0-3.73H26.53a1.87,1.87,0,1,1,0,3.73Z"/><path class="cls-7" d="M109.36,79.56H91.91a1.23,1.23,0,0,1-1.2-1.48L92.8,67.72a1.23,1.23,0,0,1,1.21-1h18.4c.78,0,1.56.52,1.32,1.47l-3.16,10.36A1.24,1.24,0,0,1,109.36,79.56Z"/><path class="cls-10" d="M111.34,80h-20l2.5-12.35a.6.6,0,0,1,.57-.47h18.78a.59.59,0,0,1,.57.7Z"/><path class="cls-10" d="M96.67,80H83.44a1.88,1.88,0,0,1,1.88-1.88H96.67Z"/><polygon class="cls-15" points="104.94 74.78 103.4 75.58 102.13 74.98 102.4 73.57 103.93 72.76 105.2 73.36 104.94 74.78"/><path class="cls-7" d="M79.13,79.56H61.68a1.24,1.24,0,0,1-1.21-1.48l2.1-10.36a1.23,1.23,0,0,1,1.21-1H82.17c.78,0,1.57.52,1.33,1.47L80.34,78.57A1.25,1.25,0,0,1,79.13,79.56Z"/><path class="cls-10" d="M81.11,80h-20l2.5-12.35a.59.59,0,0,1,.57-.47H83a.59.59,0,0,1,.58.7Z"/><path class="cls-10" d="M66.44,80H53.21a1.88,1.88,0,0,1,1.88-1.88H66.44Z"/><polygon class="cls-15" points="74.71 74.78 73.17 75.58 71.9 74.98 72.17 73.57 73.7 72.76 74.97 73.36 74.71 74.78"/><path class="cls-7" d="M48.11,79.56H30.67a1.23,1.23,0,0,1-1.21-1.48l2.09-10.36a1.24,1.24,0,0,1,1.21-1h18.4c.78,0,1.57.52,1.32,1.47L49.32,78.57A1.24,1.24,0,0,1,48.11,79.56Z"/><path class="cls-10" d="M50.09,80h-20l2.5-12.35a.6.6,0,0,1,.58-.47H52a.58.58,0,0,1,.57.7Z"/><path class="cls-10" d="M35.42,80H22.2a1.88,1.88,0,0,1,1.88-1.88H35.42Z"/><polygon class="cls-15" points="43.69 74.78 42.16 75.58 40.89 74.98 41.15 73.57 42.69 72.76 43.95 73.36 43.69 74.78"/><path class="cls-10" d="M186.58,108.47a1.31,1.31,0,0,1-1.31-1.3V78.84a1.31,1.31,0,0,1,2.61,0v28.33A1.3,1.3,0,0,1,186.58,108.47Z"/><path class="cls-10" d="M128.59,108.47a1.3,1.3,0,0,1-1.3-1.3V78.84a1.31,1.31,0,0,1,2.61,0v28.33A1.31,1.31,0,0,1,128.59,108.47Z"/><rect class="cls-9" x="125.19" y="2.09" width="63.65" height="78.74" rx="31.83"/><path class="cls-10" d="M184.59,81.79H129.44a5.22,5.22,0,0,1-5.22-5.21V6.34a5.22,5.22,0,0,1,5.22-5.21h55.15a5.22,5.22,0,0,1,5.21,5.21V76.58A5.22,5.22,0,0,1,184.59,81.79ZM129.44,3.05a3.29,3.29,0,0,0-3.29,3.29V76.58a3.28,3.28,0,0,0,3.29,3.28h55.15a3.29,3.29,0,0,0,3.29-3.28V6.34a3.3,3.3,0,0,0-3.29-3.29Z"/><rect class="cls-15" x="133.11" width="47.8" height="4.44" rx="2.22"/><rect class="cls-15" x="123.7" y="78.55" width="66.63" height="3.83" rx="1.92"/><rect class="cls-8" x="136.52" y="54.54" width="19.59" height="0.87" rx="0.44"/><rect class="cls-8" x="136.52" y="56.46" width="19.59" height="0.87" rx="0.44"/><rect class="cls-8" x="136.52" y="58.38" width="19.59" height="0.87" rx="0.44"/><rect class="cls-8" x="136.52" y="60.29" width="19.59" height="0.87" rx="0.44"/><rect class="cls-8" x="136.52" y="62.21" width="19.59" height="0.87" rx="0.44"/><rect class="cls-8" x="136.52" y="64.12" width="19.59" height="0.87" rx="0.44"/><rect class="cls-8" x="136.52" y="66.04" width="19.59" height="0.87" rx="0.44"/><path class="cls-5" d="M141.77,15h-1.39a.61.61,0,0,1-.61-.61V13a.61.61,0,0,1,.61-.61h1.39a.61.61,0,0,1,.61.61v1.4A.61.61,0,0,1,141.77,15Zm-1.39-2.25a.25.25,0,0,0-.25.24v1.4a.25.25,0,0,0,.25.24h1.39a.25.25,0,0,0,.25-.24V13a.25.25,0,0,0-.25-.24Z"/><path class="cls-5" d="M141.77,18.14h-1.39a.6.6,0,0,1-.61-.6v-1.4a.61.61,0,0,1,.61-.61h1.39a.61.61,0,0,1,.61.61v1.4A.6.6,0,0,1,141.77,18.14Zm-1.39-2.24a.25.25,0,0,0-.25.24v1.4a.25.25,0,0,0,.25.24h1.39a.25.25,0,0,0,.25-.24v-1.4a.25.25,0,0,0-.25-.24Z"/><path class="cls-5" d="M141.77,21.3h-1.39a.61.61,0,0,1-.61-.61V19.3a.61.61,0,0,1,.61-.61h1.39a.61.61,0,0,1,.61.61v1.39A.61.61,0,0,1,141.77,21.3Zm-1.39-2.25a.25.25,0,0,0-.25.25v1.39a.25.25,0,0,0,.25.25h1.39a.25.25,0,0,0,.25-.25V19.3a.25.25,0,0,0-.25-.25Z"/><path class="cls-5" d="M141.77,24.46h-1.39a.61.61,0,0,1-.61-.61v-1.4a.6.6,0,0,1,.61-.6h1.39a.6.6,0,0,1,.61.6v1.4A.61.61,0,0,1,141.77,24.46Zm-1.39-2.25a.25.25,0,0,0-.25.24v1.4a.24.24,0,0,0,.25.24h1.39a.24.24,0,0,0,.25-.24v-1.4a.25.25,0,0,0-.25-.24Z"/><path class="cls-10" d="M157.8,14.32H144.55a.3.3,0,0,1-.3-.3.29.29,0,0,1,.3-.29H157.8a.29.29,0,0,1,.29.29A.3.3,0,0,1,157.8,14.32Z"/><path class="cls-10" d="M154.09,13.5h-9.54a.3.3,0,0,1-.3-.3.29.29,0,0,1,.3-.29h9.54a.29.29,0,0,1,.29.29A.3.3,0,0,1,154.09,13.5Z"/><path class="cls-10" d="M157.8,23.88H144.55a.3.3,0,1,1,0-.59H157.8a.3.3,0,0,1,0,.59Z"/><path class="cls-10" d="M154.09,23.06h-9.54a.3.3,0,1,1,0-.59h9.54a.3.3,0,0,1,0,.59Z"/><path class="cls-10" d="M155.25,20.92h-10.7a.3.3,0,1,1,0-.59h10.7a.3.3,0,0,1,0,.59Z"/><path class="cls-10" d="M156,20.1H144.55a.3.3,0,1,1,0-.59H156a.3.3,0,1,1,0,.59Z"/><path class="cls-10" d="M152.93,16.64h-8.38a.3.3,0,1,1,0-.59h8.38a.3.3,0,0,1,0,.59Z"/><path class="cls-10" d="M154.09,17.55h-9.54a.3.3,0,1,1,0-.59h9.54a.3.3,0,0,1,0,.59Z"/><path class="cls-16" d="M140.29,16.3a.2.2,0,0,1,.11,0l.1,0,.16.11a.86.86,0,0,1,.14.13l.13.13a.75.75,0,0,1,.12.14,1.34,1.34,0,0,1,.11.14l.11.15.09.16-.45,0,.08-.12.09-.12.18-.24a3.16,3.16,0,0,1,.39-.43l.22-.2a2.2,2.2,0,0,1,.25-.17l.28-.13.15,0h.16a0,0,0,0,1,0,0s0,0,0,0l-.12.07-.1.09-.19.19a4.78,4.78,0,0,0-.34.42l-.16.22-.16.22c-.06.07-.11.15-.16.22l-.07.12-.08.11-.25.38-.2-.4-.07-.15-.07-.15-.15-.31a3,3,0,0,0-.15-.31,1,1,0,0,0-.08-.14l0-.06s0,0-.06,0a0,0,0,0,1,0-.05l0,0Z"/><path class="cls-16" d="M140.29,19.62a.22.22,0,0,1,.11,0l.1,0a.91.91,0,0,1,.16.11l.14.12.13.13.12.14.11.15.11.15.09.15h-.45l.08-.13.09-.12.18-.23a4,4,0,0,1,.39-.44l.22-.19a2.2,2.2,0,0,1,.25-.17,1.43,1.43,0,0,1,.28-.13l.15,0a.43.43,0,0,1,.16,0,0,0,0,0,1,0,0s0,0,0,0a.62.62,0,0,0-.12.08.39.39,0,0,0-.1.08l-.19.19L142,20l-.16.22-.16.22-.16.23-.07.11-.08.11-.25.38-.2-.4-.07-.15-.07-.15-.15-.31c-.05-.1-.09-.2-.15-.3a.64.64,0,0,0-.08-.14l0-.06s0,0-.06-.05a0,0,0,0,1,0-.05l0,0Z"/><path class="cls-7" d="M155.24,37.32c-.9-3-1.61-3.69-3.52-4S148,31,148.39,32.75A9.54,9.54,0,0,0,152.74,38a5.16,5.16,0,0,0,3.41.85Z"/><path class="cls-5" d="M172.93,30.15c-2.44,3.66-6,11.35-7.26,11.19s-10.19-4.6-10.58-4.71-.55,1.55-.44,2,9,9.48,12.57,9a7.16,7.16,0,0,0,5-2.77s.27-9.58.44-11.3S172.93,30.15,172.93,30.15Z"/><path class="cls-4" d="M173.59,49.76c-.39,12.79,2.92,49.23,3.88,56,1,.5,2.2.64,2.36.15s4.07-28.48,6.56-39.61a20,20,0,0,0-4.32-17.95Z"/><path class="cls-5" d="M174.48,50.48C177.47,68.59,192,105,193.2,105s2.5.33,2.83-.5-5.48-38.05-7.64-45-5.65-10.3-5.65-10.3Z"/><path class="cls-17" d="M179,26.22c4-.56,9.82,4.06,10.82,5.17s-3.07,19.31-7.39,20-8.19-.27-8.86-.83-2.43-9.91-1.88-16S179,26.22,179,26.22Z"/><path class="cls-18" d="M180.46,26.55c1.88.55,3,1.77,1.55,5.15s-3.49,9.2-2.49,20.77a29.46,29.46,0,0,0,1.33,7.42c.44,1.5,1.58,1.28,2.31,1.23,2-.16,5.52-.46,6-.62.66-.22-2.66-8.36-2.61-10.91s3.44-10.74,3.93-14-.38-4.6-.83-5c-.18-.17-4-4.2-9.41-4.47s-8.53,5.43-9,7.7,1.5,26.75,2,27,1.33.77,1.33,0S172.76,42.06,173,37.9s1.6-8.91,3.27-10A12,12,0,0,1,180.46,26.55Z"/><rect class="cls-7" x="177.25" y="19.57" width="3.59" height="9.86" rx="1.8" transform="translate(358.1 49) rotate(180)"/><path class="cls-8" d="M178.72,19.57h.65A1.47,1.47,0,0,1,180.84,21V23.4a8.41,8.41,0,0,1-3.59,3.84V21A1.47,1.47,0,0,1,178.72,19.57Z"/><ellipse class="cls-7" cx="176.58" cy="20.24" rx="4.18" ry="4.93"/><path class="cls-5" d="M177.32,29.06c1,0,2,.78,1.74,1s-1.41.55-1.55.81-2.26,4.51-2.15,11.59c.1,5.88.26,9.6.26,9.6s-.92-.44-.92-.59-.6-9.83-.15-13c1-6.64,2.37-7.45,2.29-7.93S177.06,29.06,177.32,29.06Z"/><path class="cls-7" d="M190.82,58.45c-.5,1.61-5.76,5.15-2.55,5.38,2.38.16,3-1.28,3.71-2.55a7.24,7.24,0,0,0,.55-3.16Z"/><path class="cls-18" d="M188.32,29.69c4.21,2.07,11.16,14,11.67,16.28.25,1.1-6,12.41-7.4,13.15-.52.27-1.77.22-2.07-.3s3.22-11.37,2.83-11.74c-2.31-2.14-6.88-5.67-7.24-8.49C184.78,28.25,188.32,29.69,188.32,29.69Z"/><path class="cls-4" d="M190.52,58.93h0c-.06,0-.1,0-.1-.12.05-.67.77-3.39,1.46-6a58.12,58.12,0,0,0,1.37-5.69A14.12,14.12,0,0,0,191,45a24.47,24.47,0,0,1-2.65-2.41,12.56,12.56,0,0,1-2.46-7.77.11.11,0,0,1,.22,0,12.3,12.3,0,0,0,2.41,7.63,25,25,0,0,0,2.62,2.38,10.74,10.74,0,0,1,2.31,2.18,41.28,41.28,0,0,1-1.37,5.81c-.69,2.61-1.4,5.31-1.45,6A.1.1,0,0,1,190.52,58.93Z"/><path class="cls-4" d="M177.52,105.09c-.38,1.1-5.15,4.43-6.09,5s1.39,1.88,4.49.22,3.93-.33,4.43-1-.17-3.33-.44-3.94S177.52,105.09,177.52,105.09Z"/><path class="cls-5" d="M195.8,104.43c2.08,1.75,3.81,3.89,3.71,5.64s-.1,1.75-2.87.33a6.33,6.33,0,0,1-3.17-5.45C193.57,104.24,195.8,104.43,195.8,104.43Z"/><path class="cls-4" d="M173.24,22h-.69a.86.86,0,0,1-.86-.86v-.8a.86.86,0,0,1,.86-.86h.69a.85.85,0,0,1,.86.86v.8A.85.85,0,0,1,173.24,22Zm-.69-2.19a.53.53,0,0,0-.53.53v.8a.53.53,0,0,0,.53.53h.69a.53.53,0,0,0,.53-.53v-.8a.53.53,0,0,0-.53-.53Z"/><path class="cls-4" d="M177,22h-1.48a1,1,0,0,1-1-1v-.46a1,1,0,0,1,1-1H177a1,1,0,0,1,1,1v.46A1,1,0,0,1,177,22Zm-1.48-2.19a.7.7,0,0,0-.7.7v.46a.7.7,0,0,0,.7.7H177a.69.69,0,0,0,.69-.7v-.46a.69.69,0,0,0-.69-.7Z"/><path class="cls-4" d="M174.74,20l-.06,0a1.31,1.31,0,0,0-.72,0,.17.17,0,0,1-.23,0,.17.17,0,0,1,0-.24c.21-.19.81-.11,1.06,0a.17.17,0,0,1,.09.22A.15.15,0,0,1,174.74,20Z"/><path class="cls-4" d="M177.74,20.06a.18.18,0,0,1-.15-.1.16.16,0,0,1,.08-.22c1.71-.83,2.14-1,2.47-.92a.15.15,0,0,1,.11.2.16.16,0,0,1-.2.12c-.22-.06-.79.2-2.24.9Z"/><path class="cls-18" d="M170.44,14.59c-1.56,3.2,1.8,5.23,5.34,3.82,2.62-1,3.71-.14,3.43,2.46s0,1.69.67.36.83.06.83.7.17,2.29.17,2.29a18.11,18.11,0,0,0,2.32-6.86c.28-2.77-2.63-4.95-4.35-5.07a5,5,0,0,0-4.54,1.61C172.9,13.23,170.93,13.56,170.44,14.59Z"/><ellipse class="cls-7" cx="181" cy="20.46" rx="1.41" ry="0.93" transform="translate(104.55 185.79) rotate(-71.63)"/></g></g></svg>