<svg xmlns="http://www.w3.org/2000/svg" xmlns:xlink="http://www.w3.org/1999/xlink" viewBox="0 0 200 127.8"><defs><style>.cls-1{isolation:isolate;}.cls-2{fill:#afb3bd;}.cls-3{fill:#133a50;}.cls-4{fill:#fec4ad;}.cls-5{fill:#e84f5f;}.cls-6{fill:#613531;}.cls-28,.cls-7,.cls-9{fill:#fff;}.cls-8{fill:#542f38;}.cls-9{opacity:0.35;}.cls-10{fill:#782f38;}.cls-11{fill:#f49a8a;}.cls-12{fill:#8e373f;}.cls-13{fill:#4fae86;}.cls-14{fill:#f5c5b3;}.cls-15{fill:#e8d4e5;mix-blend-mode:multiply;}.cls-16{fill:#7b2b1a;}.cls-17{fill:#864838;}.cls-18{fill:#97a3cc;}.cls-19{fill:url(#linear-gradient);}.cls-20{fill:#dca86e;}.cls-21{fill:#f3ba7a;}.cls-22{fill:#471a16;}.cls-23{fill:#42b2fc;}.cls-24{fill:#348ec9;}.cls-25{fill:#732a24;}.cls-26{fill:#808194;}.cls-27{fill:#006f9a;}.cls-28{opacity:0.7;}.cls-29{fill:#562d22;}.cls-30{fill:#fdaf99;}.cls-31{fill:#ee6191;}.cls-32{fill:#ca5072;}.cls-33{fill:#57906f;}.cls-34{fill:#4eac7e;}.cls-35{fill:#6bc971;}.cls-36{fill:#d2dceb;}.cls-37{fill:#a6aeba;}</style><linearGradient id="linear-gradient" x1="509.14" y1="126.62" x2="535.6" y2="126.34" gradientTransform="matrix(0.65, -0.3, 0.7, 0.73, -397.68, 136.82)" gradientUnits="userSpaceOnUse"><stop offset="0" stop-color="#eef4fb"/><stop offset="0.31" stop-color="#e3edf8"/><stop offset="1" stop-color="#cfe1f3"/></linearGradient></defs><title>Recurso 1</title><g class="cls-1"><g id="Capa_2" data-name="Capa 2"><g id="OBJECTS"><path class="cls-2" d="M21.35,85.19C18.69,99.37-4,108.63,11.25,124.85H180.93c3.43-8.35,5.49-19.31,6.13-25.83,1.41-14.23-2.73-30.46-12.5-36.82-13.21-8.6-31.16,3.23-43-8.37-6.81-6.69-8.87-18.88-14.2-27.61C105.61,7,80.4-2.74,58.55.67,44,2.94,29.32,11.53,21.24,24,14.67,34.1,9.94,51,15.65,62.39,18.27,67.64,23.25,75.06,21.35,85.19Z"/><path class="cls-3" d="M88.9,122.63c.37-11.17.73-19.33.73-19.33l14.82,1.09,14.74-1.55a177.86,177.86,0,0,1,1.73,19.79Z"/><path class="cls-4" d="M73,40A36,36,0,0,0,77,37.78l1.68-2.61s1.64-1.06,2.82-1.63,3.34-4.09,3.34-4.09l-.86-1.08a14.61,14.61,0,0,1-1.64,1.76,2.14,2.14,0,0,1-1.23,0,22,22,0,0,1,1-2.66,25,25,0,0,1,2.66-4.09l-.75-.79a21.79,21.79,0,0,0-1.64,1.72c-.44.58-1.27,1.78-1.27,1.78a23.6,23.6,0,0,1,1.4-2.92c.54-.79,1.12-1.86,1.12-1.86l-.87-.61a20.35,20.35,0,0,0-1.55,2.2c-.52.94-1.49,2.51-1.49,2.51a32.27,32.27,0,0,1,1.1-3.09,9,9,0,0,0,.5-1.05l-1-.35A8.45,8.45,0,0,0,79,23.14,12.37,12.37,0,0,1,78.19,25a12.68,12.68,0,0,1,.65-2.62,2.29,2.29,0,0,0,.35-.84l-.83-.16s-1.61,3-2.46,4.8-1.5,4.32-2,5.67a51.63,51.63,0,0,0-1.1,5.92Z"/><path class="cls-5" d="M90.9,55.36,77.46,54.09a68.1,68.1,0,0,1-.22-10.44c.36-6.09,1.11-7.79,1.11-7.79l-5.47-.76S71.8,39.9,71,43.35c-1.72,7.66-3.29,14.82-2,16.42,1.91,2.32,15.61,8.69,21.41,13C94,75.42,90.06,63.15,90.9,55.36Z"/><path class="cls-5" d="M109.8,52.37a13.11,13.11,0,0,1-1-4.51h-7.18S101,52.37,100,53.25a36.05,36.05,0,0,1-6.65,3.56c.37,3.43.81,6.85,1.28,10.27h19.42q.56-5.52,1.2-11C113.4,55.21,110.67,53.8,109.8,52.37Z"/><rect class="cls-5" x="100.08" y="49.44" width="10.33" height="2.96" transform="translate(210.48 101.85) rotate(180)"/><path class="cls-5" d="M89.91,80.19C90,75.39,88,55.72,88,55.72c5-1,11.08-1.83,11.08-1.83l5.79,6.3,6.56-6.13,10.63,4.3S119.48,73.23,120.27,78s-.22,27.35-.65,28.21c-1.31,2.62-7.75,4.3-15.72,3.66-9.91-.81-14.36-2.37-14.36-2.37C89.26,99.93,89.69,89.9,89.91,80.19Z"/><path class="cls-4" d="M112.52,37.46s-.09-3.07-2-4.46-5.5-1.48-5.5-1.48-3.61.1-5.51,1.48-2,4.46-2,4.46c.09.59-.59,5,.86,8.71a10.65,10.65,0,0,0,3.77,4.9c2.7,1.69,4.47.83,6.18-.09a9.11,9.11,0,0,0,3.59-4.87C112.86,43.46,112.57,37.89,112.52,37.46Z"/><path class="cls-6" d="M111.29,30.51a9.48,9.48,0,0,0-12.72.55c-3.75,3.68-1.39,9.44-1.39,9.44.61.38-.05.84,0,1.63l.9.32s-.57-2.48.12-3.11.44-1.49.52-2.55c0-.64.18-3.66,1.53-4.26.92-.41,2.26,1.51,4.66,1.58,3,0,3.57-1.87,4.49-1.52,1.71.64,1.8,3.73,1.82,4.44,0,1.06-.22,1.53.44,2.2s.4,3.12.4,3.12l.7-.24c.13-1.35-.45-1.55.19-1.9C113,40.21,115.4,34.2,111.29,30.51Z"/><path class="cls-4" d="M112.29,42.3a4.84,4.84,0,0,1,1.06-2.92c.63-.53,1.46.45,1.2,2.07s-2.26,2.18-2.26,2.18Z"/><path class="cls-4" d="M97.77,42.3a4.84,4.84,0,0,0-1.07-2.92c-.63-.53-1.46.45-1.19,2.07s2.26,2.85,2.26,2.85Z"/><path class="cls-4" d="M117.61,109.3l-1.83,2.26s.43,3.45,2.8,4a40.94,40.94,0,0,0,2.26-4.3Z"/><path class="cls-5" d="M122.05,58.36s4.71,2.62,6,6.2,3.8,23.77,3.8,28.7-11,20.56-11,20.56-3.23-1.11-3.66-4l6-18.1c-.89-5.83-4.56-14.12-4.56-22.63S122.05,58.36,122.05,58.36Z"/><path class="cls-7" d="M109.83,39.72a2.37,2.37,0,0,1-1,.88c-.72.38-1.19.27-1.75-.58A2.74,2.74,0,0,1,109.83,39.72Z"/><path class="cls-8" d="M108.68,39.58A.3.3,0,0,1,109,40c0,.11-.11.21-.17.33a.7.7,0,0,1-.77.41c-.75-.07-.7-1-.7-1Z"/><path class="cls-9" d="M108.39,39.66c.32.05.45.41.22.53s-.51.12-.54-.15S108.08,39.61,108.39,39.66Z"/><path class="cls-10" d="M110.44,39.9a6,6,0,0,0-3.74.26s-.09-.34.37-.58a3.25,3.25,0,0,1,1.34-.25C110.24,39.37,110.44,39.9,110.44,39.9Z"/><path class="cls-7" d="M100.55,39.65a2.4,2.4,0,0,0,.94.92c.71.42,1.17.33,1.77-.49A2.7,2.7,0,0,0,100.55,39.65Z"/><path class="cls-8" d="M101.71,39.56a.31.31,0,0,0-.34.4c0,.11.1.21.16.34a.58.58,0,0,0,.74.44c.38-.06.75-1,.75-1Z"/><path class="cls-9" d="M102,39.66c-.31,0-.46.38-.24.51s.5.15.54-.12S102.31,39.62,102,39.66Z"/><path class="cls-10" d="M100,39.83a5,5,0,0,1,3.35.31s.29-.49-.12-.72a2.65,2.65,0,0,0-1.24-.23C100.24,39.27,100,39.83,100,39.83Z"/><path class="cls-11" d="M103.61,43.59a6.52,6.52,0,0,0,.6-2.31.72.72,0,0,1,.72-.63h0a.73.73,0,0,1,.72.63,6.32,6.32,0,0,0,.6,2.31c.46.59.46.86.13,1.09s-.52.13-.75.39a1,1,0,0,1-.71.3.91.91,0,0,1-.69-.3c-.23-.26-.42-.16-.75-.39S103.14,44.18,103.61,43.59Z"/><path class="cls-12" d="M103.55,38.3a1.1,1.1,0,0,0,.22-.82,5.78,5.78,0,0,0-4,.19s-.25.18.16.15S102.6,37.48,103.55,38.3Z"/><path class="cls-12" d="M106.62,38.3a1.07,1.07,0,0,1-.21-.82,5.78,5.78,0,0,1,4,.19s.25.18-.17.15S107.58,37.48,106.62,38.3Z"/><path class="cls-8" d="M103,46.24a2.18,2.18,0,0,0,2,1.34,2.3,2.3,0,0,0,2.08-1.34A5.83,5.83,0,0,1,103,46.24Z"/><path class="cls-13" d="M46.44,59.63c-2.93,1.57-3.84,3.56-5.29,7.55s-2.9,4.9-2.9,4.9,3.09.72,6.53,8.15a12.46,12.46,0,0,0,4.53-7.61C50.22,67.54,46.44,59.63,46.44,59.63Z"/><path class="cls-4" d="M34.75,80.05S34.51,83,36,84.58a27.26,27.26,0,0,1,3,4.84s2.23-4.72,3.26-6.23,4-4.89,4-8-5.08-7.86-5.08-7.86-2.84,5.08-3.08,8S34.75,80.05,34.75,80.05Z"/><path class="cls-3" d="M73.37,123.63c-.51-11.41-1.47-20.12-1.47-20.12l-22.66.2s2.19,9.66,4.54,19.92Z"/><path class="cls-4" d="M63.57,45.55s-1.75,7.67-.38,9.46c.8,1,4.2,4.77,4.2,4.77s-11.26,6-14.57,6-2.16-6.65-2.16-6.65,3.62-2.85,4.15-4.29a32.25,32.25,0,0,0,.84-5.62Z"/><path class="cls-3" d="M41.89,123.63H57c.09-1.82.14-2.94.14-2.94L52.9,106l-9-2.41s-3.82,7.25-2.78,9C41.64,113.45,41.78,117.86,41.89,123.63Z"/><path class="cls-13" d="M65.09,56.43l9,3.44s.24,10.93.12,14.65-1.47,33.15-1.47,33.15-3.55,5.51-20.65,3.31c-6.6-.84-9.84-4.06-9.84-4.06s1.85-32.4,2.36-36.12,1.78-11.17,1.78-11.17L52,57.91l2.27,3.39Z"/><polygon class="cls-13" points="63.19 55.01 54.29 61.3 57.12 64.55 65.09 56.43 63.19 55.01"/><polygon class="cls-13" points="54.29 61.3 51.49 63.56 52.02 57.91 53.07 56.43 54.29 61.3"/><path class="cls-4" d="M68.44,89.23c2.37-3.8,8-15.52,8-15.52l-7.48-4L65,82.47a25.9,25.9,0,0,1-2.7-1.24c1.32,1.82,2.7,3.61,4.08,5.38C67.05,87.48,67.74,88.35,68.44,89.23Z"/><path class="cls-13" d="M78.69,66.55c.06,4.24-4.43,16.76-4.43,16.76a35.21,35.21,0,0,0-8-6.16s1.57-6.34,2.49-9.68c1-3.7,1.76-8.09,5.14-7.61S78.65,63.14,78.69,66.55Z"/><path class="cls-14" d="M64.5,45.45s-.13-2.73,2.16-2.66c1.45.05,1.57,1.38.43,3.11-.48.72-.52,2.37-1.12,2.89s-1.32-.35-1.54-.8A5.34,5.34,0,0,1,64.5,45.45Z"/><path class="cls-14" d="M52.19,45.45s.13-2.73-2.16-2.66c-1.45.05-1.57,1.38-.43,3.11.48.72.53,2.37,1.12,2.89s1.33-.35,1.54-.8A5.34,5.34,0,0,0,52.19,45.45Z"/><path class="cls-14" d="M66.81,38.78a24.19,24.19,0,0,1-.46,2.77c0,.32-.11.68-.17,1.1-.47,3.27-1.07,7.72-1.33,8.38-.43,1.1-2.76,2.89-3.87,3.54a6.71,6.71,0,0,1-5-.13c-1.11-.66-3.62-2.31-4-3.41-.27-.67-.89-5.25-1.36-8.58-.06-.38-.11-.7-.16-1A25.14,25.14,0,0,1,50,38.78C49.78,36,52.89,32,58.38,32,64.88,32,67,36,66.81,38.78Z"/><path class="cls-15" d="M52.7,35.29a13.15,13.15,0,0,1,10.06.37l1.94-1.23A15.92,15.92,0,0,0,57.81,33C53.75,33,52.7,35.29,52.7,35.29Z"/><path class="cls-16" d="M66.35,41.55c0,.32-.11.68-.17,1.1-.47,3.27-1.07,7.72-1.33,8.38-.43,1.1-2.76,2.89-3.87,3.54a6.71,6.71,0,0,1-5-.13c-1.11-.66-3.62-2.31-4-3.41-.27-.67-.89-5.25-1.36-8.58-.06-.38-.11-.7-.16-1l.45-.67s.81,4.74,2,6.21,1.47,1.55,1.47,1.55l2.53-.63.2-.05a5.93,5.93,0,0,1,3,0l.16,0,.18.05,1.92.56S62.77,48.48,64,47s1.83-6.21,1.83-6.21Z"/><path class="cls-7" d="M62.9,42.2a2,2,0,0,1-1.07.75,1.56,1.56,0,0,1-1.75-.63A3.6,3.6,0,0,1,62.9,42.2Z"/><path class="cls-8" d="M61.34,41.74c.23,0,.7,0,.7.35a1.88,1.88,0,0,1-.13.52.64.64,0,0,1-.86.35,1.11,1.11,0,0,1-.72-.93S60.45,41.73,61.34,41.74Z"/><path class="cls-9" d="M61.33,41.9c.3,0,.45.38.23.51s-.49.14-.53-.12S61,41.87,61.33,41.9Z"/><path class="cls-17" d="M63.29,42.46A4,4,0,0,0,60,42.37s-.28-.29.12-.53a2.66,2.66,0,0,1,1.21-.22C63,41.7,63.29,42.46,63.29,42.46Z"/><path class="cls-16" d="M57,39.53s-1.42.07-2.66.07a1.6,1.6,0,0,0-1.25.84,1.51,1.51,0,0,0,0,.74s.71-.66,1-.66,1.69,0,2.53,0C57.11,40.5,57.1,39.73,57,39.53Z"/><path class="cls-16" d="M59.67,39.53s1.41.07,2.65.07a1.6,1.6,0,0,1,1.25.84,1.63,1.63,0,0,1,0,.74s-.72-.66-1-.66-1.69,0-2.54,0C59.57,40.5,59.58,39.73,59.67,39.53Z"/><path class="cls-7" d="M53.81,42.2a2.06,2.06,0,0,0,1.07.75,1.56,1.56,0,0,0,1.75-.63A3.6,3.6,0,0,0,53.81,42.2Z"/><path class="cls-8" d="M55.37,41.74c-.22,0-.69,0-.69.35a1.37,1.37,0,0,0,.13.52.63.63,0,0,0,.85.35,1.13,1.13,0,0,0,.73-.93S56.27,41.73,55.37,41.74Z"/><path class="cls-9" d="M55.39,41.9c-.31,0-.45.38-.24.51s.49.14.53-.12S55.7,41.87,55.39,41.9Z"/><path class="cls-17" d="M53.42,42.46a4,4,0,0,1,3.27-.09s.28-.29-.12-.53a2.64,2.64,0,0,0-1.2-.22C53.67,41.7,53.42,42.46,53.42,42.46Z"/><path class="cls-8" d="M60.1,49.57a1.65,1.65,0,0,1-1.54,1.06,2.49,2.49,0,0,1-.93-.2c-.63-.33-.91-.89-.8-.86A10.25,10.25,0,0,0,60.1,49.57Z"/><path class="cls-16" d="M67.21,37c0,.09-.46,3.32-.65,3.83l-.49,1.35-.33-.72a10.89,10.89,0,0,1-1-4.27l0-2.77.92-.82C67.43,33.88,67.63,34.93,67.21,37Z"/><path class="cls-16" d="M52.81,34.57h0l-.44,2.85A10.9,10.9,0,0,1,51,41.19l0,.06-.5.87s-.15-.51-.35-1.22c-.15-.53-.53-3.23-.62-3.61,0-.12-.06-.24-.08-.35-.38-2,0-2.88,1.79-3.15Z"/><path class="cls-16" d="M65.62,33.61l-.92.82-1.76.63A13.79,13.79,0,0,0,56.75,34c-3.52.27-4,1.28-4,1.34h0l-.36-.08-1.73-.38-.36-.08a11.81,11.81,0,0,1,.69-2c1.39-2.08,5.15-3.43,8.58-3.09l.34,0a8.28,8.28,0,0,1,4.66,1.93Z"/><path class="cls-11" d="M59.72,46.31a10.53,10.53,0,0,1-.65-2.68.58.58,0,0,0-.61-.43h0a.6.6,0,0,0-.61.43,10.13,10.13,0,0,1-.64,2.68c-.49.53-.51.78-.19,1s.51.13.73.38a1,1,0,0,0,.72.32.91.91,0,0,0,.7-.32c.23-.25.41-.15.74-.38S60.2,46.84,59.72,46.31Z"/><path class="cls-4" d="M49.66,70.58C51.3,71.73,58,76.3,60.44,77.33a37.07,37.07,0,0,1,7.6,5c1.39,1.25,3,1.71,2.84,2.22s-2.7,5.83-3.81,5.64S59.55,85,56.92,82.85s-6.11-7.11-7.84-7.9-1.6-1.29-2.58-1.37a4.7,4.7,0,0,1-1.68-.32C44,73,43.55,71.5,43,71s-1.42-1.1-1.27-1.45.27-.78,2.3,0a12.64,12.64,0,0,0-2.78-1.19c-.88-.13-2.8-.13-3.68-.26s-1.49-.81-.84-1a18.37,18.37,0,0,1,4.43-.33c1,.17,4.21.31,5.42.67S48.67,69.89,49.66,70.58Z"/><path class="cls-18" d="M49.78,81l-7.39,2.78a2.78,2.78,0,0,1-2.67-.85L24.05,66.26c-.71-.75-.68-1.58.07-1.86l7.3-2.82a3.16,3.16,0,0,1,3.08.8L50.13,78.91C50.87,79.68,51,80.24,49.78,81Z"/><path class="cls-19" d="M49.38,81.19,42,84a2.81,2.81,0,0,1-2.68-.86L23.53,66.4c-.71-.75-.67-1.59.08-1.87L31,61.7a2.89,2.89,0,0,1,2.76.86L49.5,79.24C50.24,80,50.18,80.89,49.38,81.19Z"/><path class="cls-4" d="M34.21,79.81c-1.09-.3-2.54-.42-2.9-1.15s-.91-.9-1.52-1.45-.24-1.09-1-1.75,0-1.81-.06-2.42a9.93,9.93,0,0,1,.12-2.9c.24-1.09,1.21-1.33,2.48-1.75s2.17-.42,2.17.24-1.33,1.57-1.33,1.57,2.18-.72,2.78-1,1.57.3,1.15,1.08a8.68,8.68,0,0,1-2.72,2.12,2.43,2.43,0,0,0-.85.9,8.6,8.6,0,0,0,2.78-.48c1.15-.48,2.18-1.57,3-1.09s.37,1.09-.42,1.76c0,0-1.69,1.14-2.23,1.39a7.68,7.68,0,0,0,2.53-.31c.85-.36,1.27.06,1,.73s-2.6,1.21-2.66,1.45.43.84.73,1.57S34.21,79.81,34.21,79.81Z"/><path class="cls-4" d="M32.45,78.06a15.27,15.27,0,0,1,.49,5c0,2-.18,5.44,1,6.29s2.78,2.47,4.17,1.14A8.71,8.71,0,0,0,40.37,85c.18-2-2.06-4.9-3.08-6.65Z"/><rect class="cls-20" x="6.42" y="121.8" width="187.16" height="5.99"/><rect class="cls-21" y="121.8" width="200" height="3.98"/><path class="cls-22" d="M148.19,45c-.37,4.49.09,4.49.46,7.52s8.22,3.09,8.22,3.09a20.74,20.74,0,0,0,4.07.12c1.54-.2,3.76-.74,4.13-6.33a23.26,23.26,0,0,0-1.47-9.81l-13.67-1.29Z"/><path class="cls-4" d="M153.58,46.77s.16,4.88-1,7.11c-.8,1.53-3.7,2-3.7,2a16.09,16.09,0,0,0,2.25,8.75c2.61,4.39,11.48,6.49,11.48,6.49a39.25,39.25,0,0,0,3.12-7.31,14.92,14.92,0,0,0,.63-6.56s-4.16-1.47-5.3-2c-2.76-1.23-2.16-5.7-2.16-5.7Z"/><polygon class="cls-4" points="168.89 83.82 144.5 77.5 145.57 58.28 150.86 55.53 162.98 56.6 165.44 58.53 168.89 83.82"/><path class="cls-4" d="M162.89,38.05a40.3,40.3,0,0,1-.12,6.06,19.05,19.05,0,0,1-1.37,5.69,10.44,10.44,0,0,1-4,4.34,2.85,2.85,0,0,1-1.86.07c-2.22-.71-4.51-3.66-5.2-5.45a19.85,19.85,0,0,1-.82-5.87c0-2.14,0-4.93,0-6.53C149.76,30.71,162.8,35.68,162.89,38.05Z"/><path class="cls-23" d="M148.48,59.21l.41-3.3s4.17,3.91,7.74,3.91c5.1,0,5.61-3.91,5.61-3.91l1.87.29L163.7,62l-3.82,22.35-9.53-16Z"/><path class="cls-24" d="M175.65,85.25c-.22-1.63-1.59-11.91-2-14-.95-5-2-8.52-3.13-10.41a17.34,17.34,0,0,0-4-3.87l-1.74,10.52S166.1,80,168,82.87c.65,1,2.64,1.72,3.28,2.38C171.45,84.5,174.88,88.12,175.65,85.25Z"/><path class="cls-24" d="M172.87,122.16a45.47,45.47,0,0,0-1.4-12.8c-.44-1.51-.83-2.94-1.17-4.3H142.7A61.51,61.51,0,0,0,141,117.63c0,1.59,0,3.1,0,4.53Z"/><path class="cls-23" d="M168.54,81.28c-.84,3.52,2.31,21.49,3,26.25,0,0-2,3.87-13.54,4.55-15.82.93-17-3-17-3,.64-4.38,4-22.08,2.78-26.92a111.36,111.36,0,0,1-2.32-13.52s.34-8.79.84-10.34l6.55-2.41,11.63,21.46,3.59-21.17,2.39.77c.5,1.55,2.07,8.44,3.09,11.77a14.82,14.82,0,0,1,.59,6.7C169.89,77.45,169.14,78.75,168.54,81.28Z"/><path class="cls-24" d="M149.74,82.68c-.33-5.47-.15-11.16-.49-14.86-.77-8.61-6.91-9.5-6.91-9.5s-1.78.21-2.2,5.54c-.19,2.43-1,12-.39,19,.46,5.28,2.28,6,1.92,6.08s8,2.38,9.84,1.17C150.52,86.66,149.78,87.49,149.74,82.68Z"/><path class="cls-25" d="M157.83,31.55c-.93.54.65,2.63.91,3.85s3,3.41,3.67,7.15c.88,4.69-1.49,11.53-2.36,13.82a5.54,5.54,0,0,0,3.91-1.8,8.78,8.78,0,0,0,2.06-6c0-2.6.15-8.78-1.41-12.72C163.31,32.57,160,30.28,157.83,31.55Z"/><path class="cls-25" d="M153.88,38.38c-3.34,1.45-3.65,4.39-3.86,7.56-.19,2.94-.08,8,1.2,9.45a4.06,4.06,0,0,1-3.76-2.66c-1-2.71-.66-13.21.27-15.86a9.38,9.38,0,0,1,5.32-5.42c2.66-1.19,7.06-1.09,7.34.56S157.56,36.77,153.88,38.38Z"/><path class="cls-4" d="M154.36,83c-.58-1.17-1.89-2.63-2.13-4a3.36,3.36,0,0,0-2.33-2.67,21.44,21.44,0,0,0-3.11-1c-.68-.2-.87.53.1,1a21.05,21.05,0,0,1,2.09,1,2.19,2.19,0,0,1,.63.92,7.73,7.73,0,0,0-3-.63c-1.46.05-2.58,0-2.63.39s.64.87,2,.92,2.19.24,2.48.58a2.09,2.09,0,0,0,.7.51s-2.11-.17-3.18-.22-1.89.78-1.26,1a12.32,12.32,0,0,0,2.87.2,2.25,2.25,0,0,1,1.57,1.11s-1.14.1-2.35.15-1.65.48-.87.78a21,21,0,0,0,3.22.24,23.1,23.1,0,0,1,2.65.73Z"/><path class="cls-26" d="M154.12,88.2c-2.27.19-2.14-4.11-2.14-4.11s3.86-2,4.05-.2S154.12,88.2,154.12,88.2Z"/><path class="cls-4" d="M155.93,81.4c-1.17,0-3.13-1.17-5,0a16.66,16.66,0,0,0-3,2.37s3.7,0,5.73.91a23.76,23.76,0,0,1,4,2.57Z"/><path class="cls-24" d="M155.93,81.4c.55.9-2.31,6.09-2.56,7a44.15,44.15,0,0,0,9.36,1.33c6.46.28,11.16,0,12.65-1s-.33-8.2-4.16-6.74a17.63,17.63,0,0,1-9.29.56C158.57,81.79,155.93,81.4,155.93,81.4Z"/><path class="cls-4" d="M161.08,81.28c1.16-.13,3-1.52,4.94-.6a16.35,16.35,0,0,1,3.27,2s-3.69.37-5.59,1.55a23.73,23.73,0,0,0-3.71,3Z"/><path class="cls-24" d="M161.08,81.28c1.5.51,3.34,1.56,3.34,6.63a43.57,43.57,0,0,1-9.14,2.39c-6.39,1-11.08,0-12.67-.83s-.76-8.32,2.61-7.42c2.42.65,6.78,2.1,10,1S161.08,81.28,161.08,81.28Z"/><path class="cls-25" d="M151.86,34.57c.18,1.2-.18,5.14.73,5a34.35,34.35,0,0,1,8.17.09s2.65-6.61-.46-7.16S151.86,34.57,151.86,34.57Z"/><path class="cls-7" d="M159.75,44.73c-2,0-2.16-.44-2.16-.44l.1-.16a1.52,1.52,0,0,1,1.27-.69h.88l.73.5S161.14,44.75,159.75,44.73Z"/><path class="cls-27" d="M159.75,43.92a.65.65,0,1,1-.65-.64A.65.65,0,0,1,159.75,43.92Z"/><path class="cls-28" d="M159.42,43.69c0,.14-.08.25-.17.25s-.17-.11-.17-.25.08-.26.17-.26S159.42,43.54,159.42,43.69Z"/><path class="cls-29" d="M157.54,44.29a2.42,2.42,0,0,1,2.43-1c.81.21.6.49,1.24.33,0,0-.27.36-.54.4-.43,0-.45-.27-1.15-.38A2.61,2.61,0,0,0,157.54,44.29Z"/><path class="cls-29" d="M157.27,42.4s.42-.76.69-.83a7.21,7.21,0,0,1,2-.07,2.1,2.1,0,0,1,1.52,1.11,2.54,2.54,0,0,0-1.45-.51A16.31,16.31,0,0,0,157.27,42.4Z"/><path class="cls-7" d="M152.86,44.73c2,0,2.16-.44,2.16-.44l-.1-.16a1.52,1.52,0,0,0-1.27-.69h-.88l-.73.5S151.47,44.75,152.86,44.73Z"/><path class="cls-27" d="M152.86,43.92a.65.65,0,1,0,.65-.64A.65.65,0,0,0,152.86,43.92Z"/><path class="cls-28" d="M153.19,43.69c0,.14.08.25.17.25s.17-.11.17-.25-.08-.26-.17-.26S153.19,43.54,153.19,43.69Z"/><path class="cls-29" d="M155.07,44.29a2.42,2.42,0,0,0-2.43-1c-.81.21-.6.49-1.24.33a1.06,1.06,0,0,0,.54.4c.43,0,.45-.27,1.15-.38A2.61,2.61,0,0,1,155.07,44.29Z"/><path class="cls-29" d="M155.34,42.36s-.43-.75-.7-.82a7.1,7.1,0,0,0-2,0,2.12,2.12,0,0,0-1.5,1.13,2.52,2.52,0,0,1,1.44-.53A16.45,16.45,0,0,1,155.34,42.36Z"/><path class="cls-30" d="M157.4,47.4a5.31,5.31,0,0,1-.5-1.92.6.6,0,0,0-.6-.52h0a.6.6,0,0,0-.6.52,5.32,5.32,0,0,1-.49,1.92c-.39.49-.39.71-.11.9s.43-.07.62.14a.84.84,0,0,0,.59.26.78.78,0,0,0,.57-.26c.2-.21.35.06.62-.14S157.78,47.89,157.4,47.4Z"/><path class="cls-30" d="M152.47,45.58a2.33,2.33,0,0,0,1.34.05A.73.73,0,0,1,152.47,45.58Z"/><path class="cls-30" d="M160.14,45.54a2.31,2.31,0,0,1-1.34.13A.74.74,0,0,0,160.14,45.54Z"/><path class="cls-31" d="M155,49.61a2.33,2.33,0,0,1-.36-.08,4.89,4.89,0,0,0,1.07,1.13,1.25,1.25,0,0,0,1.52,0,7.8,7.8,0,0,0,1.07-1.16,2.76,2.76,0,0,1-1.27.29C156.55,49.66,155,49.61,155,49.61Z"/><path class="cls-31" d="M155.55,49.58a1.84,1.84,0,0,1,.63-.1.61.61,0,0,0,.46,0,1.09,1.09,0,0,1,.7,0,1.41,1.41,0,0,0,1-.06,1.16,1.16,0,0,1-.48.25c-.26.06-.46.19-.74.25a2.74,2.74,0,0,1-.61,0,3.33,3.33,0,0,1-.85-.07,2,2,0,0,1-1-.4A1.22,1.22,0,0,0,155.55,49.58Z"/><path class="cls-32" d="M154.86,49.72a2.92,2.92,0,0,0,1,.46,2.67,2.67,0,0,0,1.14,0,3.4,3.4,0,0,0,1-.47,2.65,2.65,0,0,1-1.19.18c-.76-.13-.74.06-1.35,0A3.1,3.1,0,0,1,154.86,49.72Z"/><path class="cls-24" d="M149.23,55.68s-2.91,4.71,5.59,7A7.39,7.39,0,0,0,157,59.59S152,59.14,149.23,55.68Z"/><path class="cls-24" d="M162.24,55.91s3,4.36-3.46,6.74a7.39,7.39,0,0,1-2.15-3.06S159.44,59.37,162.24,55.91Z"/><path class="cls-33" d="M182.71,116.41c-.86-3.51-1.45-7-2.58-10.41-.95-2.87-2.76-6.41-4.46-7.63s-.11,4.34,1.43,6.13c-1.08.65-.65,1.83,0,2.67.37.52,2,1.89,2.06,2.51,0,.29-.6.74-.59,1.21,0,.84,1,1.56,1.43,2.18a32.24,32.24,0,0,1,3.24,5.57C183.06,117.89,182.9,117.15,182.71,116.41Z"/><path class="cls-34" d="M182.84,115.2c-.76-5,2.59-9,7.49-9.73.61-.1,4.33-.61,4.67.1.6,1.25-3.54,1.56-4,1.7,2.29,1.33-3.48,2.46-4.39,3,1.58.85.08,1.55-.76,2.19a7.51,7.51,0,0,0-2.74,4.4A5.7,5.7,0,0,1,182.84,115.2Z"/><path class="cls-34" d="M183.19,116a26.07,26.07,0,0,0-2.1-5.1,23.43,23.43,0,0,0-2.28-2.8,11,11,0,0,0-7.81-3.5c.4,2.25,1.77,3,3.77,3.73-2.44,1.26,2.84,2.72,3.74,3.17-1.47,1,.56,1.75,1.32,2.22a12.09,12.09,0,0,1,3.85,3.88A10.17,10.17,0,0,0,183.19,116Z"/><path class="cls-35" d="M182.41,115.87c0-1.13.11-2.27.23-3.39a19.49,19.49,0,0,1,.38-2.41,21.34,21.34,0,0,0,.76-2.3,16.15,16.15,0,0,0-.31-2.64,13.2,13.2,0,0,1,.44-1.69,3.63,3.63,0,0,0-.71-2.72c-.32-.47-.33-.29-.41-.75-.21-1.23.14-2.39-.37-3.63a3.22,3.22,0,0,0-1.31-1.6c-.79-.46-.81-.19-1,.57a7.39,7.39,0,0,0-.26,3.4c.09.52.59,1.35.55,1.82,0,.15-.43.61-.49.76a2.78,2.78,0,0,0-.19,1.37c.07.81.61,1.54.7,2.29.11.91-.28,1.9-.14,2.86s.45,1.93.66,2.89a31.42,31.42,0,0,1,.9,7.73C182.43,117.93,182.37,116.55,182.41,115.87Z"/><path class="cls-34" d="M182.11,115.39a32.14,32.14,0,0,0,0-3.4c-.08-1.52-1-3.1-.78-4.56.08-.56.57-1.2.59-1.73s-.44-1.18-.41-1.8c.07-1.29,1.3-1.68,1.57-2.63s.08-2.08.77-3.1A3.09,3.09,0,0,1,185.44,97c.87-.32.91-.19,1.12.62a5.37,5.37,0,0,1,0,3c-.13.38-.81,1.23-.78,1.54.06.61.71.95.61,1.75s-.86,1.41-1,2.14.13,1.55,0,2.31a18.85,18.85,0,0,1-1,2.54,23,23,0,0,0-1.76,6.85C182,117.24,182.09,116,182.11,115.39Z"/><path class="cls-33" d="M182.25,114.79c.53-4.23,1.87-9.08,5.12-12a8,8,0,0,1,3.24-1.87c.24-.06,1.44-.42,1.67-.19s-.39,1.56-.6,1.81a8.21,8.21,0,0,1-2,1.32c1.67,1.84-2.27,3.47-3.39,4.39,1.32,1.38-.37,2.38-1.22,3.4a15.33,15.33,0,0,0-2.93,5.45A10.34,10.34,0,0,1,182.25,114.79Z"/><polygon class="cls-7" points="183.83 121.58 179.09 121.58 177.63 113.24 185.47 113.24 183.83 121.58"/><polygon class="cls-36" points="184.5 121.58 179.76 121.58 178.3 113.24 186.13 113.24 184.5 121.58"/><rect class="cls-7" x="115.21" y="120.41" width="18.89" height="1.68" transform="translate(249.3 242.5) rotate(180)"/><polygon class="cls-7" points="125.44 120.92 132.56 120.92 139.69 98.38 134.27 98.38 125.44 120.92"/><polygon class="cls-36" points="127.48 120.92 155.29 120.92 162.41 98.38 134.61 98.38 127.48 120.92"/><rect class="cls-36" x="125.44" y="120.41" width="30.22" height="1.68" transform="translate(281.1 242.5) rotate(180)"/><path class="cls-37" d="M142.75,110.75c-.8,1.72-.23,3.59,1.27,4.16a3.51,3.51,0,0,0,4.18-2.09c.8-1.72.24-3.59-1.27-4.16A3.51,3.51,0,0,0,142.75,110.75Z"/><path class="cls-7" d="M21.63,121.11H19.38a1.88,1.88,0,0,1-1.86-1.59l-.9-5.79h7.77l-.9,5.79A1.88,1.88,0,0,1,21.63,121.11Z"/><path class="cls-7" d="M23.71,119.88h-.35l-.09-.06a3.64,3.64,0,0,1-1.36-2.54,2.52,2.52,0,0,1,2.22-2.73,2.33,2.33,0,0,1,1.81.77,2.38,2.38,0,0,1,.42,2h0C26.06,119,25.1,119.88,23.71,119.88Zm-.08-.71c1.42,0,1.86-1,2-2h0a1.72,1.72,0,0,0-.26-1.44,1.62,1.62,0,0,0-1.27-.52c-.83,0-1.52.91-1.52,2A2.81,2.81,0,0,0,23.63,119.17Z"/><polygon class="cls-36" points="15.85 121.62 25.69 121.62 27.26 119.88 14.28 119.88 15.85 121.62"/><path class="cls-7" d="M82.67,121.11h2.25a1.88,1.88,0,0,0,1.86-1.59l.9-5.79H79.91l.9,5.79A1.88,1.88,0,0,0,82.67,121.11Z"/><path class="cls-7" d="M77.94,117.32h0a2.38,2.38,0,0,1,.42-2,2.33,2.33,0,0,1,1.81-.77,2.51,2.51,0,0,1,2.22,2.73A3.64,3.64,0,0,1,81,119.8l-.09.06h-.35C79.2,119.88,78.24,119,77.94,117.32Zm3.75-.06c0-1.12-.69-2-1.52-2a1.62,1.62,0,0,0-1.27.52,1.72,1.72,0,0,0-.26,1.44h0c.17.94.62,2,2,2A2.81,2.81,0,0,0,81.69,117.26Z"/><polygon class="cls-36" points="88.45 121.62 78.61 121.62 77.04 119.88 90.02 119.88 88.45 121.62"/></g></g></g></svg>